<svg width="100%" viewBox="0 0 29 29" fill="none" xmlns="http://www.w3.org/2000/svg"><path fill-rule="evenodd" clip-rule="evenodd" d="M26.153 26.6039C26.8086 26.0162 27.3263 25.2909 27.669 24.4799C28.221 23.0649 28.227 21.4719 28.227 20.4559V7.75586C28.227 6.75286 28.221 5.15886 27.666 3.75386C27.3233 2.94397 26.8056 2.21999 26.1499 1.63387C25.4943 1.04776 24.7171 0.614044 23.874 0.363861C22.7595 0.0866459 21.6117 -0.0331836 20.464 0.00786131H7.764C6.61565 -0.0326107 5.46726 0.0872092 4.352 0.363861C3.50868 0.616973 2.73162 1.05313 2.07631 1.6412C1.421 2.22927 0.903584 2.95475 0.561 3.76586C0 5.16986 0 6.76486 0 7.76786V20.4779C0 21.4799 0.00999999 23.0739 0.56 24.4799C0.901799 25.2914 1.4191 26.0172 2.07475 26.6051C2.73039 27.1929 3.5081 27.6283 4.352 27.8799C5.467 28.1599 6.615 28.2799 7.763 28.2399H20.467C21.6149 28.2795 22.7627 28.1584 23.877 27.8799C24.7205 27.6276 25.4977 27.1918 26.153 26.6039ZM15.211 15.6579C15.561 15.7839 15.884 15.9779 16.16 16.2299C16.384 16.4439 16.523 16.7329 16.55 17.0429C16.6072 17.7539 16.5918 18.4689 16.504 19.1769C16.431 20.0449 16.291 21.1969 16.108 22.3709C16.0347 22.915 15.9248 23.4535 15.779 23.9829C15.621 24.5079 15.039 24.9649 14.13 24.9649C13.222 24.9649 12.64 24.5049 12.484 23.9829C12.3316 23.4541 12.2157 22.9155 12.137 22.3709C11.9696 21.3109 11.8376 20.2456 11.741 19.1769C11.6546 18.4688 11.6392 17.754 11.695 17.0429C11.7194 16.7359 11.8523 16.4477 12.07 16.2299C12.3451 15.9779 12.6676 15.7831 13.0187 15.6569C13.3697 15.5307 13.7424 15.4756 14.115 15.4949C14.4875 15.4764 14.86 15.5318 15.211 15.6579ZM12.198 13.5339C11.8999 13.0898 11.7654 12.556 11.8174 12.0238C11.8693 11.4915 12.1046 10.9938 12.483 10.6159C12.8195 10.279 13.2519 10.0543 13.721 9.97265C14.1901 9.89096 14.673 9.95623 15.1035 10.1595C15.5341 10.3628 15.8913 10.6942 16.1263 11.1083C16.3613 11.5224 16.4626 11.9991 16.4164 12.4729C16.3701 12.9468 16.1785 13.3949 15.8678 13.7557C15.5571 14.1165 15.1425 14.3725 14.6807 14.4886C14.2189 14.6048 13.7326 14.5754 13.2881 14.4045C12.8437 14.2336 12.463 13.9295 12.198 13.5339ZM7.701 5.49986C9.48686 3.98625 11.75 3.15218 14.091 3.14486C16.4401 3.13375 18.7169 3.95665 20.5161 5.46705C22.3153 6.97746 23.5201 9.07734 23.916 11.3929C24.3131 13.7079 23.8759 16.0888 22.6824 18.1118C21.4889 20.1348 19.6164 21.6688 17.398 22.4409C17.3757 22.4469 17.3523 22.4469 17.33 22.4409C17.2957 22.4345 17.2651 22.4152 17.2446 22.3869C17.2241 22.3586 17.2153 22.3235 17.22 22.2889C17.273 21.9499 17.321 21.6119 17.364 21.2729C17.3709 21.2147 17.3933 21.1594 17.429 21.1129C17.464 21.0657 17.511 21.0288 17.565 21.0059C19.3888 20.2122 20.8835 18.8146 21.7977 17.0482C22.7119 15.2818 22.9897 13.2543 22.5844 11.3071C22.1791 9.35985 21.1154 7.61165 19.5723 6.35669C18.0292 5.10172 16.101 4.41659 14.112 4.41659C12.123 4.41659 10.1948 5.10172 8.65167 6.35669C7.10859 7.61165 6.0449 9.35985 5.63959 11.3071C5.23428 13.2543 5.51209 15.2818 6.42627 17.0482C7.34046 18.8146 8.83521 20.2122 10.659 21.0059C10.712 21.03 10.7584 21.0667 10.794 21.1129C10.8294 21.1597 10.8521 21.2148 10.86 21.2729L10.94 21.8549L11.003 22.2919C11.0074 22.3126 11.0074 22.3341 11.003 22.3549C10.9975 22.3716 10.9886 22.3871 10.9769 22.4004C10.9652 22.4136 10.951 22.4243 10.935 22.4319C10.9184 22.4396 10.9003 22.444 10.882 22.4449C10.865 22.4451 10.8481 22.4424 10.832 22.4369C9.18341 21.8573 7.71698 20.8529 6.58089 19.5252C5.4448 18.1974 4.6793 16.5933 4.36174 14.8749C4.04418 13.1565 4.1858 11.3847 4.77231 9.73859C5.35881 8.09247 6.36841 6.63031 7.701 5.49986ZM15.987 8.03186C15.3235 7.7863 14.618 7.67416 13.911 7.70186L13.923 7.68886C12.8632 7.72912 11.839 8.08206 10.9794 8.70322C10.1198 9.32439 9.46324 10.186 9.09235 11.1796C8.72145 12.1732 8.65283 13.2543 8.89514 14.2868C9.13744 15.3193 9.67983 16.257 10.454 16.9819C10.4981 17.0229 10.5325 17.0733 10.5546 17.1294C10.5768 17.1854 10.5861 17.2457 10.582 17.3059C10.5591 17.6832 10.5591 18.0615 10.582 18.4389C10.5842 18.4619 10.5802 18.4851 10.5703 18.506C10.5605 18.527 10.5451 18.5449 10.526 18.5579C10.5117 18.568 10.4953 18.5748 10.478 18.5779C10.4614 18.5805 10.4444 18.5798 10.428 18.5759C10.411 18.5724 10.3949 18.5652 10.381 18.5549C9.23105 17.7647 8.35878 16.6328 7.88768 15.3194C7.41658 14.0061 7.37051 12.5778 7.756 11.2369C8.14197 9.89621 8.93992 8.71096 10.0369 7.84896C11.1338 6.98696 12.4741 6.49189 13.868 6.43386H14.118C15.5403 6.43117 16.9259 6.88455 18.0715 7.72742C19.2171 8.57028 20.0623 9.75824 20.483 11.1169C20.9037 12.4759 20.8772 13.9341 20.4074 15.277C19.9376 16.6199 19.0492 17.7765 17.873 18.5769C17.8493 18.5922 17.8211 18.5993 17.793 18.5969C17.776 18.5962 17.7594 18.5921 17.744 18.5849C17.7351 18.5809 17.7267 18.5759 17.719 18.5699L17.703 18.5549C17.6912 18.5422 17.6821 18.5272 17.6762 18.5109C17.6704 18.4945 17.6679 18.4772 17.669 18.4599C17.689 18.0829 17.689 17.7039 17.669 17.3259C17.665 17.2658 17.6746 17.2057 17.697 17.1499C17.7193 17.0945 17.7534 17.0446 17.797 17.0039C18.3333 16.5014 18.7609 15.8943 19.0532 15.22C19.3456 14.5458 19.4967 13.8188 19.497 13.0839V12.8829C19.4709 12.1757 19.3061 11.4805 19.012 10.8369C18.7177 10.1931 18.299 9.61384 17.78 9.13245C17.2611 8.65106 16.6511 8.27703 15.987 8.03186Z" fill="currentColor"></path></svg>