<svg width="100%" viewBox="0 0 35 18" fill="none" xmlns="http://www.w3.org/2000/svg"><path d="M28.1561 10.048V9.325H34.3721V10.77H28.1561V10.048ZM28.1561 7.735V7.012H34.3721V8.458H28.1561V7.735ZM28.1561 5.422V4.699H34.3721V6.145H28.1561V5.422ZM28.1561 3.037V2.314H34.3721V3.832H28.1561V3.037ZM28.1561 0.797V0H34.3721V1.59H28.1561V0.795V0.797ZM14.2791 10.047V9.325H20.4951V10.77H14.2791V10.047ZM14.2791 7.734V7.012H20.4951V8.457H14.2791V7.734ZM14.2791 5.422V4.699H20.4951V6.144H14.2791V5.422ZM14.2791 3.037V2.314H20.4951V3.832H14.2791V3.037ZM21.2181 10.048V9.325H27.4331V10.77H21.2181V10.048ZM21.2181 7.735V7.012H27.4331V8.458H21.2181V7.735ZM7.4131 16.986V16.264H13.4841V17.709H7.4131V16.986ZM7.4131 14.601V13.879H13.4841V15.324H7.4131V14.601ZM7.4131 12.288V11.566H13.4841V13.011H7.4131V12.288ZM0.475098 10.048V9.325H6.5451V10.77H0.475098V10.048ZM0.475098 7.735V7.012H6.5451V8.458H0.475098V7.735ZM28.2291 16.986V16.264H34.2991V17.709H28.2291V16.986ZM28.2291 14.601V13.879H34.2991V15.324H28.2291V14.601ZM28.2291 12.288V11.566H34.2991V13.011H28.2291V12.288ZM21.2901 16.986V16.264H27.3611V17.709H21.2911L21.2901 16.986ZM21.2901 14.601V13.879H27.3611V15.324H21.2911L21.2901 14.601ZM21.2901 12.288V11.566H27.3611V13.011H21.2911L21.2901 12.288ZM14.3511 16.986V16.264H20.4231V17.709H14.3511V16.986ZM14.3511 14.601V13.879H20.4231V15.324H14.3511V14.601ZM14.3511 12.288V11.566H20.4231V13.011H14.3511V12.288ZM0.475098 16.986V16.264H6.5451V17.709H0.475098V16.986ZM0.475098 14.601V13.879H6.5451V15.324H0.475098V14.601ZM0.475098 12.288V11.566H6.5451V13.011H0.475098V12.288Z" fill="currentColor"></path></svg>