<svg width="100%" viewBox="0 0 29 29" fill="none" xmlns="http://www.w3.org/2000/svg"><path d="M3.90207 13.161V15.087C3.88666 15.5448 3.69395 15.9787 3.36463 16.2972C3.03531 16.6156 2.59515 16.7936 2.13707 16.7936C1.67899 16.7936 1.23883 16.6156 0.909508 16.2972C0.58019 15.9787 0.387484 15.5448 0.37207 15.087V13.161C0.387484 12.7032 0.58019 12.2693 0.909508 11.9508C1.23883 11.6324 1.67899 11.4544 2.13707 11.4544C2.59515 11.4544 3.03531 11.6324 3.36463 11.9508C3.69395 12.2693 3.88666 12.7032 3.90207 13.161ZM25.0891 13.211V13.161C25.0852 12.9246 25.1288 12.6898 25.2174 12.4706C25.306 12.2513 25.4377 12.0521 25.6047 11.8847C25.7717 11.7173 25.9706 11.5852 26.1897 11.4961C26.4087 11.4071 26.6434 11.3629 26.8798 11.3663C27.1163 11.3696 27.3496 11.4204 27.566 11.5156C27.7825 11.6109 27.9776 11.7486 28.1398 11.9206C28.302 12.0927 28.428 12.2955 28.5103 12.5172C28.5927 12.7389 28.6296 12.9748 28.6191 13.211V15.137C28.6191 15.6051 28.4331 16.054 28.1021 16.385C27.7711 16.716 27.3222 16.902 26.8541 16.902C26.386 16.902 25.937 16.716 25.606 16.385C25.275 16.054 25.0891 15.6051 25.0891 15.137V13.211ZM10.0011 18.939V20.865C10.009 21.1018 9.96929 21.3377 9.88418 21.5588C9.79907 21.7799 9.67034 21.9817 9.50566 22.152C9.34097 22.3223 9.1437 22.4577 8.92559 22.5502C8.70748 22.6428 8.47299 22.6904 8.23607 22.6904C7.99915 22.6904 7.76466 22.6428 7.54655 22.5502C7.32844 22.4577 7.13117 22.3223 6.96648 22.152C6.8018 21.9817 6.67307 21.7799 6.58796 21.5588C6.50285 21.3377 6.4631 21.1018 6.47107 20.865V18.939C6.48648 18.4812 6.67919 18.0473 7.00851 17.7288C7.33783 17.4104 7.77799 17.2324 8.23607 17.2324C8.69415 17.2324 9.13431 17.4104 9.46363 17.7288C9.79295 18.0473 9.98566 18.4812 10.0011 18.939ZM10.0011 7.383V13.683C10.0011 14.1511 9.81511 14.6 9.48411 14.931C9.15311 15.262 8.70418 15.448 8.23607 15.448C7.76796 15.448 7.31903 15.262 6.98803 14.931C6.65702 14.6 6.47107 14.1511 6.47107 13.683V7.383C6.48648 6.92518 6.67919 6.49125 7.00851 6.17284C7.33783 5.85442 7.77799 5.67642 8.23607 5.67642C8.69415 5.67642 9.13431 5.85442 9.46363 6.17284C9.79295 6.49125 9.98566 6.92518 10.0011 7.383ZM18.9901 9.309C19.0055 9.76682 19.1982 10.2007 19.5275 10.5192C19.8568 10.8376 20.297 11.0156 20.7551 11.0156C21.2132 11.0156 21.6533 10.8376 21.9826 10.5192C22.312 10.2007 22.5047 9.76682 22.5201 9.309V7.383C22.5047 6.92518 22.312 6.49125 21.9826 6.17284C21.6533 5.85442 21.2132 5.67642 20.7551 5.67642C20.297 5.67642 19.8568 5.85442 19.5275 6.17284C19.1982 6.49125 19.0055 6.92518 18.9901 7.383V9.309ZM12.7301 3.692C12.7455 4.14982 12.9382 4.58375 13.2675 4.90216C13.5968 5.22058 14.037 5.39858 14.4951 5.39858C14.9532 5.39858 15.3933 5.22058 15.7226 4.90216C16.052 4.58375 16.2447 4.14982 16.2601 3.692V1.765C16.2601 1.53322 16.2144 1.3037 16.1257 1.08956C16.037 0.875424 15.907 0.680852 15.7431 0.516957C15.5792 0.353061 15.3846 0.223052 15.1705 0.134353C14.9564 0.0456531 14.7269 0 14.4951 0C14.2633 0 14.0338 0.0456531 13.8196 0.134353C13.6055 0.223052 13.4109 0.353061 13.247 0.516957C13.0831 0.680852 12.9531 0.875424 12.8644 1.08956C12.7757 1.3037 12.7301 1.53322 12.7301 1.765V3.692ZM12.7301 24.556C12.7455 24.0982 12.9382 23.6643 13.2675 23.3458C13.5968 23.0274 14.037 22.8494 14.4951 22.8494C14.9532 22.8494 15.3933 23.0274 15.7226 23.3458C16.052 23.6643 16.2447 24.0982 16.2601 24.556V26.483C16.2447 26.9408 16.052 27.3747 15.7226 27.6932C15.3933 28.0116 14.9532 28.1896 14.4951 28.1896C14.037 28.1896 13.5968 28.0116 13.2675 27.6932C12.9382 27.3747 12.7455 26.9408 12.7301 26.483V24.556ZM18.9901 14.605C19.0055 14.1472 19.1982 13.7133 19.5275 13.3948C19.8568 13.0764 20.297 12.8984 20.7551 12.8984C21.2132 12.8984 21.6533 13.0764 21.9826 13.3948C22.312 13.7133 22.5047 14.1472 22.5201 14.605V20.865C22.5047 21.3228 22.312 21.7567 21.9826 22.0752C21.6533 22.3936 21.2132 22.5716 20.7551 22.5716C20.297 22.5716 19.8568 22.3936 19.5275 22.0752C19.1982 21.7567 19.0055 21.3228 18.9901 20.865V14.605ZM16.2611 8.988V19.26C16.2611 19.4918 16.2154 19.7214 16.1267 19.9356C16.038 20.1498 15.9079 20.3445 15.744 20.5084C15.58 20.6723 15.3854 20.8024 15.1712 20.8911C14.957 20.9798 14.7274 21.0255 14.4956 21.0255C14.2637 21.0255 14.0341 20.9798 13.8199 20.8911C13.6057 20.8024 13.4111 20.6723 13.2472 20.5084C13.0832 20.3445 12.9532 20.1498 12.8645 19.9356C12.7757 19.7214 12.7301 19.4918 12.7301 19.26V8.988C12.7455 8.53018 12.9382 8.09625 13.2675 7.77784C13.5968 7.45942 14.037 7.28142 14.4951 7.28142C14.9532 7.28142 15.3933 7.45942 15.7226 7.77784C16.052 8.09625 16.2447 8.53018 16.2601 8.988H16.2611Z" fill="currentColor"></path></svg>