<svg width="100%" viewBox="0 0 40 22" fill="none" xmlns="http://www.w3.org/2000/svg"><path fill-rule="evenodd" clip-rule="evenodd" d="M0.621094 17.9978C0.621094 18.4886 0.796549 18.8597 1.14739 19.1113C1.49826 19.3628 1.8733 19.4517 2.27256 19.3781C2.6476 19.3045 2.91075 19.1695 3.06203 18.9732C3.21324 18.777 3.28888 18.4518 3.28888 17.9978V12.6607C3.28888 12.2803 3.15883 11.9583 2.8987 11.6945C2.63861 11.4307 2.32102 11.2988 1.94593 11.2988C1.58297 11.2988 1.27145 11.4307 1.01131 11.6945C0.751179 11.9583 0.621094 12.2803 0.621094 12.6607V17.9978ZM4.79513 20.2807C4.79513 20.6365 4.91916 20.9033 5.16717 21.0813C5.41521 21.2592 5.7328 21.3481 6.11994 21.3481C6.51919 21.3481 6.84281 21.2592 7.09085 21.0813C7.33886 20.9034 7.46289 20.6365 7.46289 20.2807V7.83964C7.46289 7.47156 7.3328 7.1556 7.0727 6.89184C6.81257 6.62807 6.49498 6.49615 6.11994 6.49615C5.75698 6.49615 5.44541 6.62807 5.18532 6.89184C4.92518 7.15564 4.79513 7.47156 4.79513 7.83964V20.2807ZM8.95117 20.8702C8.95117 21.226 9.07821 21.4929 9.33228 21.6708C9.58635 21.8487 9.91301 21.9377 10.3123 21.9377C10.6994 21.9377 11.017 21.8487 11.265 21.6708C11.5131 21.4929 11.6371 21.226 11.6371 20.8702V9.51502C11.6371 9.13468 11.507 8.80952 11.2469 8.53961C10.9868 8.2697 10.6753 8.13477 10.3123 8.13477C9.93722 8.13477 9.61662 8.2697 9.35046 8.53961C9.08431 8.80952 8.95121 9.13468 8.95121 9.51502V20.8702H8.95117ZM13.125 20.9261C13.125 21.601 13.5727 21.9384 14.468 21.9384C15.3633 21.9384 15.8109 21.601 15.8109 20.9261V2.52226C15.8109 1.49164 15.5024 0.908867 14.8854 0.773892C14.4861 0.675726 14.0929 0.792296 13.7057 1.12357C13.3186 1.45484 13.125 1.92104 13.125 2.52226V20.9261H13.125ZM17.3717 21.4589V1.4355C17.3717 0.797514 17.5592 0.41718 17.9343 0.294462C18.7449 0.0981666 19.5495 0 20.348 0C22.199 0 23.9231 0.441693 25.5201 1.32508C27.1171 2.20847 28.4087 3.41392 29.3947 4.94144C30.3808 6.469 30.9524 8.15292 31.1097 9.99334C31.8477 9.67433 32.6341 9.51484 33.4689 9.51484C35.1627 9.51484 36.6115 10.1222 37.8153 11.3368C39.0191 12.5515 39.6211 14.0115 39.6211 15.717C39.6211 17.4347 39.0191 18.9009 37.8153 20.1155C36.6115 21.3302 35.1688 21.9375 33.487 21.9375L17.6983 21.9191C17.5894 21.8823 17.5077 21.8148 17.4533 21.7167C17.3988 21.6185 17.3717 21.5325 17.3717 21.4589Z" fill="currentColor"></path></svg>