<svg width="100%" viewBox="0 0 50 29" fill="none" xmlns="http://www.w3.org/2000/svg"><path fill-rule="evenodd" clip-rule="evenodd" d="M31.7566 12.7721C32.383 12.7721 32.8732 12.6087 33.2 12.3909C33.5268 12.173 33.6902 11.7917 33.6902 11.3288C33.6902 11.002 33.6357 10.7841 33.4178 10.5663C33.2 10.3484 32.8732 10.185 32.3285 9.96715L30.6673 9.36803C29.224 8.82338 28.516 7.89747 28.516 6.61753C28.516 5.77332 28.8427 5.06527 29.4963 4.57509C30.1499 4.0849 31.0486 3.81257 32.0834 3.81257C32.9004 3.81257 33.7446 3.97597 34.5616 4.24829C34.725 4.30276 34.8339 4.35722 34.8884 4.46615C34.9429 4.57508 34.9973 4.68402 34.9973 4.84741V5.39206C34.9973 5.60993 34.8884 5.71886 34.725 5.71886C34.6913 5.71886 34.6161 5.69805 34.512 5.6693C34.4478 5.65153 34.3725 5.63073 34.2893 5.60993C33.6357 5.39206 32.9004 5.28313 32.1924 5.28313C30.9124 5.28313 30.3133 5.74609 30.3133 6.56307C30.3133 6.94432 30.4222 7.16219 30.6401 7.38005C30.8035 7.59791 31.2392 7.81577 31.8383 8.03363L33.3906 8.63275C34.1803 8.90508 34.725 9.28633 35.0518 9.66759C35.3786 10.1305 35.542 10.6207 35.542 11.2743C35.542 12.2002 35.2152 12.9355 34.5071 13.4802C33.7991 14.0248 32.9004 14.2971 31.7566 14.2971C30.6673 14.2971 29.6597 14.1337 28.7883 13.7525C28.6249 13.698 28.5159 13.5891 28.4615 13.5346C28.407 13.4257 28.3526 13.3168 28.3526 13.1534V12.6087C28.3526 12.3909 28.407 12.2819 28.5704 12.2819C28.6502 12.2819 28.7591 12.3111 28.8972 12.3481C28.9478 12.3617 29.0022 12.3763 29.0606 12.3909C29.932 12.6632 30.8307 12.7721 31.7566 12.7721ZM38.1563 0C38.5376 0 38.8644 0.108931 39.0822 0.326792C39.3001 0.51742 39.3545 0.844212 39.3545 1.14377C39.3545 1.47056 39.2456 1.74289 39.0278 1.96075C38.8099 2.17861 38.5376 2.28754 38.1563 2.28754C37.7751 2.28754 37.5027 2.17861 37.2849 1.96075C37.067 1.79735 36.9581 1.47056 36.9581 1.14377C36.9581 0.816979 37.067 0.544653 37.2849 0.326792C37.5027 0.108931 37.7751 0 38.1563 0ZM37.6117 4.0849H38.7554C39.0278 4.0849 39.1367 4.24829 39.1367 4.46615V13.6163C39.1367 13.8886 39.0278 13.9976 38.7554 13.9976H37.6117C37.3393 13.9976 37.2304 13.8886 37.2304 13.6163V4.46615C37.2304 4.19383 37.3393 4.0849 37.6117 4.0849ZM46.2989 5.47376C45.2096 5.47376 44.4198 5.74609 43.9296 6.29074C43.4394 6.83539 43.2216 7.70684 43.1399 9.04124V9.31356C43.1399 10.4573 43.3577 11.356 43.8479 11.9007C44.3381 12.4453 45.1279 12.7176 46.1627 12.7176C46.7346 12.7176 47.3337 12.6087 47.9328 12.4453C48.0418 12.3909 48.1507 12.3909 48.2052 12.3909C48.3685 12.3909 48.4775 12.4998 48.4775 12.7721V13.3168C48.4775 13.4802 48.4775 13.6436 48.423 13.698C48.3685 13.807 48.2596 13.8614 48.0962 13.9159C47.4971 14.1882 46.7074 14.2971 45.8904 14.2971C44.3653 14.2971 43.1943 13.8342 42.3774 12.9627C41.5604 12.0641 41.1791 10.8114 41.1791 9.15017C41.1791 7.48898 41.6421 6.15458 42.4591 5.28313C43.3305 4.32999 44.4743 3.89427 46.0265 3.89427C46.6801 3.89427 47.4154 4.05766 48.1235 4.22106C48.2324 4.27553 48.3413 4.38446 48.3958 4.43892C48.4502 4.49339 48.5047 4.65678 48.5047 4.82018V5.36483C48.5047 5.63716 48.3958 5.74609 48.2324 5.74609C48.1235 5.74609 48.069 5.74609 47.9056 5.69162C47.3882 5.52823 46.8435 5.47376 46.2989 5.47376ZM15.2264 13.9976H14.0826C13.8103 13.9976 13.7014 13.8886 13.6197 13.6436V7.29835C13.6197 6.61753 13.4563 6.18181 13.2384 5.85502C13.0206 5.52823 12.6393 5.36483 12.0947 5.36483C11.1688 5.36483 10.2156 5.63716 9.23524 6.23628V6.5086V6.83539V13.6436C9.23524 13.9159 9.12631 14.0248 8.85398 14.0248H7.71021C7.43788 14.0248 7.32895 13.9159 7.32895 13.6436V7.29835C7.32895 6.61753 7.16556 6.18181 6.94769 5.85502C6.72983 5.52823 6.34858 5.36483 5.80392 5.36483C4.82355 5.36483 3.87041 5.69162 2.9445 6.23628V13.698C2.9445 13.9703 2.83556 14.0793 2.56324 14.0793H1.41947C1.14714 14.0793 1.03821 13.9703 1.03821 13.698V4.54785C1.03821 4.27553 1.14714 4.1666 1.41947 4.1666H2.29091C2.39984 4.1666 2.50877 4.16659 2.56324 4.22106C2.67217 4.27553 2.72663 4.32999 2.72663 4.49339L2.83556 5.0925C4.0338 4.24829 5.25927 3.81257 6.45751 3.81257C7.65574 3.81257 8.49996 4.27553 8.93568 5.20144C10.2156 4.24829 11.5228 3.81257 12.8027 3.81257C13.7559 3.81257 14.4094 4.0849 14.8996 4.57509C15.3898 5.06527 15.6077 5.80055 15.6077 6.72646V13.6163C15.6077 13.8886 15.4987 13.9976 15.2264 13.9976ZM24.54 11.7917V4.46615C24.54 4.24829 24.6489 4.0849 25.0029 4.0849H26.1467C26.419 4.0849 26.528 4.19383 26.528 4.46615V13.5346C26.528 13.807 26.419 13.9159 26.1467 13.9159H25.3297C25.1663 13.9159 25.0574 13.9159 25.0029 13.8614C24.894 13.807 24.8395 13.7525 24.8395 13.5891L24.7306 12.9355C23.5051 13.8342 22.2524 14.2699 20.9725 14.2699C20.0194 14.2699 19.3113 13.9976 18.8211 13.5074C18.3309 13.0172 18.1131 12.2275 18.1131 11.3015V4.46615C18.1131 4.19383 18.222 4.0849 18.4943 4.0849H19.6381C19.9104 4.0849 20.0194 4.19383 20.0194 4.46615V10.6752C20.0194 11.4105 20.1283 11.9007 20.4006 12.2275C20.7002 12.5542 21.1359 12.7176 21.735 12.7176C22.6609 12.7176 23.6141 12.3909 24.54 11.7917ZM49.4306 18.3001C50.0297 19.0626 49.2672 24.0734 46.4078 26.4971C45.9176 26.8239 45.5363 26.6605 45.6997 26.1703C46.3805 24.5908 47.7966 20.9416 47.143 20.0702C46.4078 19.1987 42.568 19.6345 40.8523 19.8523C40.3621 19.9068 40.2532 19.4711 40.7434 19.1443C42.3229 18.0277 44.4198 17.6465 46.1899 17.6465C47.8239 17.6465 49.1583 17.9733 49.4306 18.3001ZM25.602 25.1355C31.5387 25.1355 38.1018 23.8555 44.093 21.3229C45.0461 20.9416 45.8086 21.922 44.8827 22.6028C39.5451 26.5516 31.7838 28.6485 25.0574 28.6485C15.6893 28.6485 7.21998 25.1627 0.820312 19.3894C0.439055 19.0081 0.656916 18.5724 1.03817 18.5724C1.1471 18.5724 1.25603 18.6269 1.36496 18.6813C8.25482 22.7118 16.7786 25.1355 25.602 25.1355Z" fill="currentColor"></path></svg>