<svg width="100%" viewBox="0 0 33 23" fill="none" xmlns="http://www.w3.org/2000/svg"><path fill-rule="evenodd" clip-rule="evenodd" d="M28.863 0.672727C30.2448 1.05455 31.3357 2.14545 31.6993 3.52727C32.3721 6.03636 32.3721 11.2727 32.3721 11.2727C32.3721 11.2727 32.3721 16.5091 31.7175 19.0182C31.3357 20.4182 30.263 21.5091 28.8812 21.8727C26.3721 22.5455 16.3721 22.5455 16.3721 22.5455C16.3721 22.5455 6.37207 22.5455 3.88116 21.8727C2.49934 21.4909 1.40843 20.4 1.0448 19.0182C0.37207 16.5091 0.37207 11.2727 0.37207 11.2727C0.37207 11.2727 0.37207 6.03636 1.02662 3.52727C1.40843 2.12727 2.48116 1.03636 3.86298 0.672727C6.37207 0 16.3721 0 16.3721 0C16.3721 0 26.3721 0 28.863 0.672727ZM21.4628 11.2734L13.0991 6.50977V16.037L21.4628 11.2734Z" fill="currentColor"></path></svg>