<svg width="100%" viewBox="0 0 29 29" fill="none" xmlns="http://www.w3.org/2000/svg"><path fill-rule="evenodd" clip-rule="evenodd" d="M22.6841 12.57C18.1641 9.887 10.6081 9.604 6.30005 10.946C5.59405 11.158 4.88805 10.734 4.67605 10.098C4.46405 9.392 4.88805 8.686 5.52305 8.474C10.5371 6.991 18.8001 7.274 24.0261 10.381C24.6621 10.734 24.8731 11.581 24.5201 12.217C24.167 12.711 23.3201 12.923 22.6841 12.57ZM22.5431 16.525C22.1901 17.02 21.5541 17.231 21.0601 16.878C17.2461 14.548 11.4561 13.842 7.00705 15.254C6.44205 15.395 5.80605 15.113 5.66505 14.548C5.52405 13.983 5.80605 13.348 6.37105 13.206C11.5261 11.652 17.8821 12.429 22.2611 15.113C22.6841 15.325 22.8961 16.031 22.5431 16.525ZM20.8481 20.409C20.5661 20.833 20.0711 20.974 19.6481 20.692C16.3281 18.644 12.1621 18.22 7.21805 19.35C6.72405 19.491 6.30005 19.138 6.15905 18.714C6.01805 18.22 6.37105 17.796 6.79505 17.655C12.1621 16.455 16.8231 16.949 20.4951 19.209C20.989 19.421 21.0601 19.986 20.8481 20.409ZM14.3511 0C6.58305 0 0.227051 6.356 0.227051 14.124C0.227051 21.892 6.58305 28.248 14.3511 28.248C22.1191 28.248 28.4751 21.892 28.4751 14.124C28.4751 6.356 22.1901 0 14.3511 0Z" fill="currentColor"></path></svg>