<svg class="logo duration-500" viewBox="0 0 97 23" fill="none" xmlns="http://www.w3.org/2000/svg"><path d="M95.0448 4.37248C96.1337 4.37248 96.9998 3.53108 96.9998 2.38448C96.9998 1.24613 96.1337 0.396484 95.0448 0.396484C93.956 0.396484 93.0898 1.24613 93.0898 2.38448C93.0898 3.53108 93.956 4.37248 95.0448 4.37248ZM95.0448 4.08376C94.1457 4.08376 93.4198 3.3826 93.4198 2.38448C93.4198 1.39461 94.1457 0.685197 95.0448 0.685197C95.9522 0.685197 96.6781 1.39461 96.6781 2.38448C96.6781 3.3826 95.9522 4.08376 95.0448 4.08376ZM94.2529 3.46509H94.6984V2.6402H95.0036C95.548 2.6402 95.3336 3.34961 95.4903 3.46509H95.9357V3.44035C95.7872 3.3826 95.9605 2.57421 95.416 2.47522V2.45872C95.713 2.39273 95.8945 2.21125 95.8945 1.91429C95.8945 1.51009 95.6305 1.27912 95.1356 1.27912H94.2529V3.46509ZM94.6984 2.27724V1.64207H95.0366C95.2841 1.64207 95.4738 1.69157 95.4738 1.94729C95.4738 2.21125 95.2923 2.27724 95.0283 2.27724H94.6984Z" fill="white"></path><path d="M15.5141 21.5276C15.4158 21.4645 15.2931 21.4535 15.1841 21.4955C13.935 21.9774 12.5775 22.2418 11.1577 22.2418C4.99557 22.2418 0 17.2628 0 11.1209C0 7.88155 1.38957 4.96555 3.60709 2.93307C3.70031 2.84763 3.84397 2.85227 3.93354 2.94153L19.9963 18.9509C20.0857 19.04 20.0909 19.1834 20.0068 19.2776C18.9844 20.423 17.9351 21.2843 16.5497 21.9856C16.4377 22.0423 16.3042 22.0341 16.1986 21.9664L15.5141 21.5276Z" fill="white"></path><path d="M20.1972 17.1453C20.3038 17.2515 20.4807 17.2347 20.562 17.1081C21.6718 15.3798 22.3154 13.3253 22.3154 11.1209C22.3154 4.97895 17.3198 0 11.1577 0C8.94666 0 6.88577 0.641041 5.15204 1.74684C5.02472 1.82804 5.00787 2.00588 5.11483 2.11248L20.1972 17.1453Z" fill="white"></path><path d="M24.4751 0.66027C24.4751 0.49436 24.6096 0.359863 24.7755 0.359863H45.1704C45.3363 0.359863 45.4708 0.49436 45.4708 0.660269V11.6975C45.4708 17.4953 40.7707 22.1954 34.9729 22.1954C29.1751 22.1954 24.4751 17.4953 24.4751 11.6975V0.66027Z" fill="white"></path><path d="M48.5221 21.8354C48.3608 21.8354 48.23 21.7046 48.23 21.5433L48.23 0.651998C48.23 0.490656 48.3608 0.359864 48.5221 0.359864L58.7265 0.359863C64.6568 0.359863 69.4643 5.16733 69.4643 11.0976C69.4643 17.028 64.6568 21.8354 58.7265 21.8354L48.5221 21.8354Z" fill="white"></path><path d="M81.8941 21.857H89.0219C89.2207 21.857 89.3818 21.6959 89.3818 21.4971V14.2461C89.3818 14.0473 89.2207 13.8862 89.0219 13.8862H87.2513C86.9981 13.8862 86.824 13.6316 86.9159 13.3956L89.1908 7.55314C89.2827 7.31718 89.1087 7.06262 88.8554 7.06262H87.2547C87.0006 7.06262 86.8265 6.80633 86.9201 6.57006L89.1866 0.852422C89.2803 0.616151 89.1062 0.359863 88.852 0.359863H81.8941C75.9578 0.359863 71.1455 5.17219 71.1455 11.1085C71.1455 17.0447 75.9578 21.857 81.8941 21.857Z" fill="white"></path></svg>